<svg width="81" height="81" viewBox="0 0 81 81" fill="none" xmlns="http://www.w3.org/2000/svg">
<path d="M67.1337 19.9487H57.0093V13.1992C57.0093 9.47677 53.9821 6.44958 50.2597 6.44958H30.011C26.2886 6.44958 23.2614 9.47677 23.2614 13.1992V19.9487H13.137C9.41464 19.9487 6.38745 22.9759 6.38745 26.6983V63.821C6.38745 67.5434 9.41464 70.5706 13.137 70.5706H67.1337C70.8561 70.5706 73.8832 67.5434 73.8832 63.821V26.6983C73.8832 22.9759 70.8561 19.9487 67.1337 19.9487ZM50.2597 13.1992V19.9487H30.011V13.1992H50.2597ZM26.6362 26.6983H67.1337V36.8227H13.137V26.6983H26.6362ZM13.137 63.821V43.5723H33.3858V50.3218H46.8849V43.5723H67.1337L67.137 63.821H13.137Z" fill="#828FFF"/>
</svg>
