<svg width="69" height="65" viewBox="0 0 69 65" fill="none" xmlns="http://www.w3.org/2000/svg">
<path d="M61.5 14.25H51.375V7.5C51.375 3.77737 48.3476 0.75 44.625 0.75H24.375C20.6524 0.75 17.625 3.77737 17.625 7.5V14.25H7.5C3.77737 14.25 0.75 17.2774 0.75 21V31.125H68.25V21C68.25 17.2774 65.2226 14.25 61.5 14.25ZM24.375 7.5H44.625V14.25H24.375V7.5ZM41.25 41.25H27.75V34.5H0.75V58.125C0.75 61.8476 3.77737 64.875 7.5 64.875H61.5C65.2226 64.875 68.25 61.8476 68.25 58.125V34.5H41.25V41.25Z" fill="#828FFF"/>
</svg>
