<svg width="59" height="59" viewBox="0 0 59 59" fill="none" xmlns="http://www.w3.org/2000/svg">
<path d="M56.345 0.24585H35.695C33.5108 0.253748 31.4076 1.12954 29.795 2.70259C28.1825 1.12954 26.0793 0.253748 23.895 0.24585H3.24504C2.46266 0.24585 1.71231 0.577688 1.15908 1.16836C0.605847 1.75904 0.295044 2.56017 0.295044 3.39551V50.6405C0.295044 51.4758 0.605847 52.277 1.15908 52.8676C1.71231 53.4583 2.46266 53.7902 3.24504 53.7902H20.2311C21.7828 53.7902 23.305 54.4642 24.4024 55.6359L27.7094 59.1666C27.7359 59.195 27.7713 59.2044 27.7979 59.2328C28.0516 59.4816 28.3348 59.7021 28.6652 59.8501H28.6711C29.3908 60.1682 30.1993 60.1682 30.919 59.8501H30.9249C31.2553 59.7021 31.5385 59.4816 31.7922 59.2328C31.8187 59.2044 31.8541 59.195 31.8807 59.1666L35.1876 55.6359C36.2966 54.4588 37.7953 53.7957 39.3589 53.7902H56.345C57.1274 53.7902 57.8778 53.4583 58.431 52.8676C58.9842 52.277 59.295 51.4758 59.295 50.6405V3.39551C59.295 2.56017 58.9842 1.75904 58.431 1.16836C57.8778 0.577688 57.1274 0.24585 56.345 0.24585ZM20.2311 47.4908H6.19504V6.54518H23.895C25.5234 6.54518 26.845 7.95938 26.845 9.69484V49.6609C24.8905 48.2538 22.5885 47.4984 20.2311 47.4908ZM53.395 47.4908H39.3589C37.0019 47.4908 34.6861 48.2656 32.745 49.6609V9.69484C32.745 7.95938 34.0666 6.54518 35.695 6.54518H53.395V47.4908Z" fill="#828FFF"/>
</svg>
